<?xml version="1.0" encoding="UTF-8"?>
<svg width="42px" height="42px" viewBox="0 0 42 42" version="1.1" xmlns="http://www.w3.org/2000/svg" xmlns:xlink="http://www.w3.org/1999/xlink">
    <!-- Generator: Sketch 46.2 (44496) - http://www.bohemiancoding.com/sketch -->
    <title>Group 10</title>
    <desc>Created with Sketch.</desc>
    <defs>
        <polygon id="path-1" points="34.9083872 5.00329787 14.8155649 5.00329787 14.8155649 36 34.9083872 36"></polygon>
    </defs>
    <g id="Page-1" stroke="none" stroke-width="1" fill="none" fill-rule="evenodd">
        <g id="iPhone-7" transform="translate(-49.000000, -850.000000)">
            <g id="Group-2" transform="translate(38.000000, 719.000000)">
                <g id="Group-3" transform="translate(0.000000, 119.000000)">
                    <g id="Group-10" transform="translate(11.000000, 12.000000)">
                        <circle id="Oval-Copy" fill="#48466D" cx="21" cy="21" r="21"></circle>
                        <path d="M14.1429617,19.9058059 C13.5212277,19.2803644 12.5763394,19.1740904 11.8445936,19.5863245 L11.8445936,13.1438484 C11.8445936,12.8166995 11.7630064,12.5081011 11.6199011,12.2379229 C11.7059936,12.2118697 11.7962638,12.1983484 11.8880904,12.1983484 C12.4061202,12.1983484 12.8275723,12.6224548 12.8275723,13.1438484 L12.8275723,17.9000399 C12.8275723,18.1731037 13.0476777,18.3947207 13.3190617,18.3947207 C13.5903638,18.3947207 13.8105511,18.1731037 13.8105511,17.9000399 L13.8105511,13.1438484 C13.8105511,12.0769043 12.9481511,11.2089867 11.8880904,11.2089867 C11.5377404,11.2089867 11.1995138,11.3042952 10.9044564,11.4817207 C10.6167713,11.3088298 10.2808383,11.2089867 9.92213298,11.2089867 C8.86231809,11.2089867 8,12.0769043 8,13.1441782 L8.00802766,22.2229734 C8.00835532,22.6371862 8.16063511,23.2220638 8.36255532,23.5833457 C8.36575,23.5891995 8.36927234,23.5949707 8.37279468,23.600742 L14.0341787,32.8283537 C14.1519723,33.044117 14.2578883,33.4544548 14.2578883,33.6963537 L14.2578883,35.5053191 C14.2578883,35.778383 14.4779936,36 14.7493777,36 C15.0206798,36 15.240867,35.778383 15.240867,35.5053191 L15.240867,33.6963537 C15.240867,33.282141 15.0885053,32.697016 14.8869128,32.3356516 C14.8833904,32.3297979 14.8801957,32.3240266 14.8766734,32.3182553 L9.21528936,23.0906436 C9.09749574,22.8748803 8.99133404,22.4642128 8.99100638,22.2220665 L8.98297872,13.1438484 C8.98297872,12.6227846 9.40443085,12.1985957 9.92246064,12.1985957 C10.4401628,12.1985957 10.8616149,12.6224548 10.8616149,13.1438484 L10.8616149,21.2739282 C10.8616149,21.2854707 10.862516,21.2970957 10.8634989,21.308391 C10.8718543,21.7921064 11.0587021,22.2735957 11.4247798,22.6419681 L15.8267223,27.0729069 C16.0187309,27.26575 16.3300074,27.26575 16.522016,27.0729069 C16.7136968,26.8796516 16.7136968,26.5662713 16.522016,26.373016 L12.1197457,21.9424894 C11.7533404,21.5737048 11.7533404,20.9740691 12.1197457,20.6056144 C12.4858234,20.2369122 13.0815904,20.2369122 13.4479957,20.6056144 L18.8646181,26.0574096 C19.4690681,26.6657846 19.9800532,27.9070213 19.9800532,28.7675186 L19.9800532,35.5053191 C19.9800532,35.778383 20.2002404,36 20.4715426,36 C20.7428447,36 20.9630319,35.778383 20.9630319,35.5053191 L20.9630319,28.7675186 C20.9630319,27.6473963 20.3467862,26.1495027 19.559584,25.3576011 L14.1429617,19.9058059 Z" id="Fill-1" fill="#FFFFFF"></path>
                        <g id="Group-5" transform="translate(14.798936, 5.000000)"></g>
                        <mask id="mask-2" fill="white">
                            <use xlink:href="#path-1"></use>
                        </mask>
                        <g id="Clip-3"></g>
                        <path d="M32.9862543,11.209234 C32.6275489,11.209234 32.291616,11.3088298 32.0039309,11.4817207 C31.7089553,11.304625 31.3710564,11.209234 31.0202968,11.209234 C29.9605638,11.209234 29.0981638,12.0769043 29.0981638,13.1438484 L29.0981638,17.9000399 C29.0981638,18.1731037 29.3180234,18.3947207 29.5896532,18.3947207 C29.8610372,18.3947207 30.0811426,18.1731037 30.0811426,17.9000399 L30.0811426,13.1438484 C30.0811426,12.6227846 30.5025947,12.1985957 31.0202968,12.1985957 C31.1124511,12.1985957 31.2023936,12.2121995 31.2884862,12.2379229 C31.1454628,12.5084309 31.0641213,12.8166995 31.0641213,13.1438484 L31.0641213,19.5856649 C30.7803681,19.4249761 30.4590979,19.3393138 30.1250489,19.3393138 C29.6114426,19.3393138 29.1286362,19.5405665 28.7657532,19.9058059 L23.3491309,25.3576011 C22.5622564,26.1498324 21.945683,27.6473963 21.945683,28.7675186 L21.945683,35.5053191 C21.945683,35.778383 22.1658702,36 22.4371723,36 C22.7088021,36 22.9286617,35.778383 22.9286617,35.5053191 L22.9286617,28.7675186 C22.9286617,27.9070213 23.4396468,26.6657846 24.0440968,26.0570798 L29.4607191,20.6052846 C29.637983,20.4268697 29.8741436,20.3286755 30.1250489,20.3286755 C30.3758723,20.3286755 30.6117053,20.4268697 30.7889691,20.6052846 C30.9665606,20.7840293 31.0641213,21.0213936 31.0641213,21.2739282 C31.0641213,21.5263803 30.9665606,21.7637447 30.7889691,21.9424894 L26.3866989,26.373016 C26.1950181,26.5662713 26.1950181,26.8796516 26.3866989,27.0729069 C26.5787074,27.26575 26.889984,27.2660798 27.0819926,27.0729069 L31.484017,22.6419681 C31.8471457,22.2764814 32.0471,21.7907872 32.0471,21.2739282 L32.0471,13.1438484 C32.0471,12.6224548 32.4685521,12.1983484 32.9862543,12.1983484 C33.5040383,12.1983484 33.9254085,12.6224548 33.9254085,13.1432713 L33.9177085,22.2220665 C33.9174628,22.4642128 33.8112191,22.8748803 33.6934255,23.0906436 L28.0320415,32.3179255 C28.0285191,32.3236968 28.0249968,32.3294681 28.0218021,32.3356516 C27.8198819,32.697016 27.6679298,33.2818112 27.6679298,33.6963537 L27.6679298,35.5053191 C27.6679298,35.778383 27.8877074,36 28.1594191,36 C28.4307213,36 28.6509085,35.778383 28.6509085,35.5053191 L28.6509085,33.6963537 C28.6509085,33.4544548 28.7568245,33.044117 28.8742085,32.8283537 L34.5355926,23.600742 C34.5394426,23.5949707 34.5426372,23.5891995 34.5458319,23.5833457 C34.7477521,23.2223936 34.9001138,22.637516 34.9006872,22.2229734 L34.9083872,13.1438484 C34.9083872,12.0769043 34.0463968,11.209234 32.9862543,11.209234 L32.9862543,11.209234 Z" id="Fill-2" fill="#FFFFFF" mask="url(#mask-2)"></path>
                        <path d="M21.1787138,8.8917367 C20.9070021,8.8917367 20.6872245,9.11335372 20.6872245,9.38641755 L20.6872245,14.6527074 C20.6872245,15.4552447 20.0382947,16.1083883 19.2406074,16.1083883 C18.443166,16.1083883 17.7942362,15.4552447 17.7942362,14.6527074 L17.7942362,9.44701596 C17.7942362,7.50819681 19.2809096,5.9893617 21.1787138,5.9893617 C23.044817,5.9893617 24.5631096,7.54101064 24.5631096,9.44792287 C24.5631096,9.72106915 24.7832968,9.94260372 25.0545989,9.94260372 L27.4250521,9.94260372 C27.4275915,10.2875612 27.4301309,10.7841383 27.4301309,11.3323271 C27.4301309,12.0994122 26.8113457,12.723617 26.0503564,12.723617 L25.1080894,12.723617 C24.8363777,12.723617 24.6166,12.9451516 24.6166,13.2182979 L24.6166,21.5025532 C24.6166,21.7756995 24.8363777,21.997234 25.1080894,21.997234 C25.3793915,21.997234 25.5995787,21.7756995 25.5995787,21.5025532 L25.5995787,13.7129787 L26.0503564,13.7129787 C27.3533766,13.7129787 28.4131096,12.6450452 28.4131096,11.3323271 C28.4131096,10.301742 28.4041809,9.4511383 28.4041809,9.44248138 C28.4009862,9.17164362 28.1817819,8.95324202 27.9126915,8.95324202 L25.5198755,8.95324202 C25.4129766,7.95200798 24.9819404,7.02637766 24.2799298,6.30661702 C23.4582415,5.46409309 22.3568957,5 21.1787138,5 C20.0005319,5 18.8991862,5.4637633 18.0771702,6.30595745 C17.2608883,7.14262766 16.8109298,8.25829787 16.8109298,9.44701596 L16.8109298,14.4475798 L14.9595713,16.3112899 C14.7675628,16.5045452 14.7675628,16.8175957 14.9595713,17.0108511 C15.0555755,17.1074787 15.1813149,17.1557926 15.3070543,17.1557926 C15.4327936,17.1557926 15.558533,17.1074787 15.6545372,17.0108511 L17.0180106,15.6385239 C17.3955564,16.4967952 18.2492734,17.09775 19.2406074,17.09775 C20.5799979,17.09775 21.6698755,16.0008777 21.6698755,14.6523777 L21.6698755,9.38641755 C21.6698755,9.11335372 21.450016,8.8917367 21.1787138,8.8917367 L21.1787138,8.8917367 Z" id="Fill-4" fill="#FFFFFF" mask="url(#mask-2)"></path>
                    </g>
                </g>
            </g>
        </g>
    </g>
</svg>