<?xml version="1.0" encoding="utf-8"?>
<!-- Generator: Adobe Illustrator 21.1.0, SVG Export Plug-In . SVG Version: 6.00 Build 0)  -->
<svg version="1.1" id="Capa_1" xmlns="http://www.w3.org/2000/svg" xmlns:xlink="http://www.w3.org/1999/xlink" x="0px" y="0px"
	 viewBox="0 0 79.3 62.8" style="enable-background:new 0 0 79.3 62.8;" xml:space="preserve">
<style type="text/css">
	.st0{fill:#FFFFFF;}
</style>
<title>iso</title>
<g id="Capa_2">
	<g id="Capa_1-2">
		<path class="st0" d="M16.5,30.9c-1.1,0.1-1.9,1-1.8,2.1c0.3,3.3,0.4,6.7,0.3,10c-0.1,3-0.5,10.3-2.6,12.6c-0.2,0.3-0.6,0.5-1,0.5
			c-2.3,0-4.2-2.3-5.5-7C4.6,43.8,4,38.4,4,32.9c-0.1-5.8,0.2-13.8,4.5-17c2.6-1.9,6.7-2.1,12.2-0.2c1.1,0.2,2.1-0.5,2.3-1.6
			c0.1-0.8-0.2-1.7-1-2.1c-6.8-2.2-12.1-2-15.8,0.8c-2.6,1.9-4.4,5-5.3,9.3C0.2,25.7-0.1,29.4,0,33c0,5.8,0.7,11.5,2,17.1
			C2.6,52.6,3.7,55,5.2,57c1.4,2,3.7,3.1,6.2,3.1c1.5,0,2.9-0.7,3.9-1.8c2.2-2.5,3.4-7.5,3.6-15.2c0.1-3.5-0.1-6.9-0.4-10.4
			C18.5,31.6,17.6,30.8,16.5,30.9z"/>
		<path class="st0" d="M77.6,21.1c-1.1-3.2-3-6-5.6-8.3c-2.3-2-5.2-3.4-8.2-3.9c-3.7-3.7-8.3-6.3-13.4-7.6
			c-4.7-1.2-9.6-1.6-14.5-1.1c-5.5,0.4-10.8,1.6-16,3.5c-1,0.5-1.4,1.7-0.9,2.7c0.4,0.9,1.4,1.3,2.3,1c4.8-1.7,9.9-2.8,15-3.2
			c4.4-0.4,8.8-0.1,13.1,1c4.5,1.2,8.7,3.6,11.9,7l0.5,0.6l0.8,0.1c2.5,0.4,4.8,1.5,6.8,3.1c2,1.8,3.6,4,4.4,6.6
			c1.3,4.2,1.8,8.6,1.3,12.9c-0.5,6.1-1.6,14.2-3.8,18.2c-1.1,2-2,2-2.3,2c-0.7-0.2-1.4-0.7-1.8-1.3c-1.8-2.2-4.5-8.4-2.3-25.6
			c0.1-1.1-0.6-2.1-1.8-2.2s-2.1,0.6-2.2,1.8c-1,8-1.1,14.6-0.3,19.7c0.7,4.1,1.9,7.2,3.8,9.2c1.1,1.5,2.8,2.3,4.7,2.4l0,0
			c2.3,0,4.2-1.4,5.8-4c2.1-3.7,3.6-10.4,4.3-19.9C79.6,30.8,79.1,25.8,77.6,21.1z"/>
		<ellipse transform="matrix(1 -8.552009e-03 8.552009e-03 1 -0.2456 0.2422)" class="st0" cx="28.2" cy="28.8" rx="2.9" ry="2.9"/>
		<ellipse transform="matrix(1 -8.552009e-03 8.552009e-03 1 -0.2431 0.44)" class="st0" cx="51.3" cy="28.6" rx="2.9" ry="2.9"/>
		<path class="st0" d="M55.8,53.7c-3.5,3.8-6.5,5.5-8.6,4.9c-1.7-0.5-2.9-2.3-3.8-4.2c-0.7-1.6,0-3.6,1.6-4.3h0.1
			c3.3-1.3,5.5-4,5.5-7c0-4.4-4.8-7.8-10.7-7.8s-10.6,3.5-10.6,8c0,3,2.3,5.6,5.6,6.9c1.7,0.6,2.5,2.5,1.9,4.2l0,0.1
			c-0.8,1.9-2.1,3.8-3.7,4.3c-2.1,0.7-5.2-1-8.7-4.7c-0.7-0.8-2-0.9-2.8-0.1c0,0,0,0,0,0l0,0c-0.8,0.8-0.8,2-0.1,2.8
			c3.9,4.1,7.5,6.2,10.7,6.2c0.7,0,1.4-0.1,2.1-0.3c2.4-0.7,4.4-2.7,6-5.8c1.5,3.1,3.6,5,6,5.7c0.7,0.2,1.4,0.3,2.1,0.3
			c3.2,0,6.8-2.2,10.6-6.3c0.8-0.8,0.7-2.1-0.1-2.9s-2.1-0.7-2.9,0.1L55.8,53.7z M33.2,43.2c0-2.3,3.5-3.9,6.7-4s6.7,1.5,6.7,3.8
			s-3.5,4-6.7,4S33.2,45.4,33.2,43.2z"/>
	</g>
</g>
</svg>
