<?xml version="1.0" encoding="UTF-8"?>
<svg width="42px" height="42px" viewBox="0 0 42 42" version="1.1" xmlns="http://www.w3.org/2000/svg" xmlns:xlink="http://www.w3.org/1999/xlink">
    <!-- Generator: Sketch 46.2 (44496) - http://www.bohemiancoding.com/sketch -->
    <title>Group 11</title>
    <desc>Created with Sketch.</desc>
    <defs>
        <polygon id="path-1" points="29.5 29.7994175 29.5 0.0604225888 0.00449238579 0.0604225888 0.00449238579 29.7994175 29.5 29.7994175"></polygon>
    </defs>
    <g id="Page-1" stroke="none" stroke-width="1" fill="none" fill-rule="evenodd">
        <g id="iPhone-7" transform="translate(-49.000000, -969.000000)">
            <g id="Group-2" transform="translate(38.000000, 719.000000)">
                <g id="Group-6" transform="translate(0.000000, 238.000000)">
                    <g id="Group-11" transform="translate(11.000000, 12.000000)">
                        <circle id="Oval-Copy-2" fill="#48466D" cx="21" cy="21" r="21"></circle>
                        <path d="M20.8180584,24.2191859 C19.0614607,24.2191859 17.6322081,25.549606 17.6322081,27.1848344 C17.6322081,27.9613433 18.0899074,28.4249575 18.8564581,28.4249575 C19.2082868,28.4249575 19.594632,28.3354093 19.9681739,28.248856 C20.2773249,28.1775019 20.5969581,28.1032278 20.8180584,28.1032278 C21.0105571,28.1032278 21.3140926,28.1739829 21.6077449,28.2424169 C21.992368,28.3321897 22.3900939,28.4249575 22.7568972,28.4249575 C23.5375241,28.4249575 24.003684,27.9613433 24.003684,27.1848344 C24.003684,25.549606 22.5746561,24.2191859 20.8180584,24.2191859 L20.8180584,24.2191859 Z M22.9551612,27.3755362 C22.9545622,27.3758357 22.911585,27.4065336 22.7568972,27.4065336 C22.5071206,27.4065336 22.1675711,27.327243 21.8388033,27.2509474 C21.473198,27.1655172 21.1275089,27.084804 20.8180584,27.084804 C20.4805305,27.084804 20.1032449,27.1722557 19.7382386,27.2567875 C19.4206269,27.3304626 19.091934,27.4065336 18.8564581,27.4065336 C18.7257297,27.4065336 18.682453,27.3807773 18.6818541,27.3830984 C18.679533,27.3796542 18.6505571,27.33196 18.6505571,27.1845349 C18.6505571,26.1108547 19.6227094,25.2372354 20.8180584,25.2372354 C22.0131079,25.2372354 22.985335,26.1108547 22.985335,27.1845349 C22.985335,27.3097227 22.9621992,27.3664765 22.9551612,27.3755362 L22.9551612,27.3755362 Z" id="Fill-1" fill="#FFFFFF"></path>
                        <path d="M19.2328452,23.2469588 C19.2328452,22.3505781 18.611099,21.621389 17.8468693,21.621389 C17.0826396,21.621389 16.4608185,22.3505781 16.4608185,23.2469588 C16.4608185,24.1431149 17.0826396,24.8722291 17.8468693,24.8722291 C18.611099,24.8722291 19.2328452,24.1431149 19.2328452,23.2469588 L19.2328452,23.2469588 Z M17.4792424,23.2469588 C17.4792424,22.8995476 17.6733883,22.6398128 17.8468693,22.6398128 C18.0205749,22.6398128 18.2144962,22.8995476 18.2144962,23.2469588 C18.2144962,23.5944448 18.0205749,23.8541796 17.8468693,23.8541796 C17.6733883,23.8538801 17.4792424,23.5944448 17.4792424,23.2469588 L17.4792424,23.2469588 Z" id="Fill-2" fill="#FFFFFF"></path>
                        <path d="M20.9102272,23.8670578 C21.6744569,23.8670578 22.296203,23.1378687 22.296203,22.2417126 C22.296203,21.3453319 21.6744569,20.6162177 20.9102272,20.6162177 C20.1459975,20.6162177 19.5244759,21.3453319 19.5244759,22.2417126 C19.5244759,23.1378687 20.1459975,23.8670578 20.9102272,23.8670578 L20.9102272,23.8670578 Z M20.9102272,21.6345666 C21.0839327,21.6345666 21.2778541,21.8943014 21.2778541,22.2417126 C21.2778541,22.5891986 21.0839327,22.8489334 20.9102272,22.8489334 C20.7367462,22.8489334 20.5426003,22.5891986 20.5426003,22.2417126 C20.5426003,21.8943014 20.7367462,21.6345666 20.9102272,21.6345666 L20.9102272,21.6345666 Z" id="Fill-3" fill="#FFFFFF"></path>
                        <g id="Group-7" transform="translate(6.250000, 4.624447)">
                            <mask id="mask-2" fill="white">
                                <use xlink:href="#path-1"></use>
                            </mask>
                            <g id="Clip-5"></g>
                            <path d="M17.723585,16.9969416 C16.9593553,16.9969416 16.3378338,17.7261307 16.3378338,18.6225114 C16.3378338,19.5186675 16.9593553,20.2477817 17.723585,20.2477817 C18.4881142,20.2477817 19.1096358,19.5186675 19.1096358,18.6225114 C19.1096358,17.7261307 18.4881142,16.9969416 17.723585,16.9969416 L17.723585,16.9969416 Z M17.723585,19.2294327 C17.5501041,19.2294327 17.3559581,18.9699975 17.3559581,18.6222119 C17.3559581,18.2748008 17.5501041,18.0153655 17.723585,18.0153655 C17.8972906,18.0153655 18.0915114,18.2748008 18.0915114,18.6222119 C18.0915114,18.9699975 17.8972906,19.2294327 17.723585,19.2294327 L17.723585,19.2294327 Z" id="Fill-4" fill="#FFFFFF" mask="url(#mask-2)"></path>
                            <path d="M28.8571396,10.1870089 L15.7414695,0.378932741 C15.4630165,0.17071066 15.1311041,0.0604225888 14.7818959,0.0604225888 L14.7751574,0.0604225888 L14.7666967,0.0604225888 L14.7561396,0.0607220812 C14.7523211,0.0604225888 14.748802,0.0604225888 14.7450584,0.0604225888 L14.7336028,0.0604225888 L14.7251421,0.0604225888 L14.7184036,0.0604225888 C14.3691954,0.0604225888 14.0372081,0.17071066 13.7588299,0.378932741 L0.643159898,10.1870089 C-0.0655139594,10.7169607 -0.21084264,11.7245279 0.318809645,12.4332018 L1.41764721,13.9025863 C1.71916117,14.3056282 2.19999619,14.5463452 2.70359264,14.5463452 C2.95950888,14.5463452 3.20606599,14.4860723 3.43008629,14.3717411 L3.43008629,28.1948871 C3.43008629,29.0795876 4.15021574,29.7994175 5.03491624,29.7994175 L24.4653832,29.7994175 C25.3503832,29.7994175 26.0701383,29.0795876 26.0701383,28.1948871 L26.0701383,14.3717411 C26.2942335,14.4860723 26.5407906,14.5463452 26.7967069,14.5463452 C27.3006028,14.5463452 27.7811383,14.3056282 28.0826523,13.9025863 L29.1814898,12.4329023 C29.7111421,11.7245279 29.5658135,10.7169607 28.8571396,10.1870089 L28.8571396,10.1870089 Z M24.4653832,28.7812931 L5.03491624,28.7812931 C4.71146447,28.7812931 4.44851015,28.5180393 4.44851015,28.1948871 L4.44851015,13.6399315 L14.7502995,5.93623858 L25.0520888,13.6399315 L25.0520888,28.1948871 C25.0520888,28.5180393 24.788835,28.7812931 24.4653832,28.7812931 L24.4653832,28.7812931 Z M28.366047,11.8234353 L27.2669848,13.2928198 C27.1552741,13.4422665 26.9838896,13.5279213 26.7967069,13.5279213 C26.6697221,13.5279213 26.5486523,13.4875647 26.4463008,13.411269 L15.055033,4.89265736 C14.9646612,4.82512183 14.857368,4.79120431 14.7502995,4.79120431 C14.6429315,4.79120431 14.5356383,4.82512183 14.4452665,4.89265736 L3.05399873,13.411269 C2.95164721,13.4875647 2.83057741,13.5279213 2.70359264,13.5279213 C2.5164099,13.5279213 2.34502538,13.4422665 2.23331472,13.2928198 L1.13417766,11.8234353 C0.94085533,11.5642995 0.993790609,11.1960736 1.2529264,11.0024518 L14.3685964,1.19437563 C14.4695254,1.11890355 14.5905952,1.07884645 14.7239442,1.07884645 L14.7356992,1.07884645 L14.7461815,1.07884645 L14.7544175,1.07884645 L14.7657982,1.07884645 L14.7818959,1.07884645 C14.9097043,1.07884645 15.0304746,1.11890355 15.131703,1.19437563 L28.2473731,11.0024518 C28.506434,11.1960736 28.5594442,11.5642995 28.366047,11.8234353 L28.366047,11.8234353 Z" id="Fill-6" fill="#FFFFFF" mask="url(#mask-2)"></path>
                        </g>
                        <path d="M24.7697107,17.1644182 C23.3260076,17.1644182 21.9830089,17.7414651 21.0002995,18.7665527 C20.0172906,17.7414651 18.6742919,17.1644182 17.2305888,17.1644182 C14.3447551,17.1644182 11.9968096,19.5120641 11.9968096,22.3981974 C11.9968096,23.744191 12.4750241,25.0997684 13.4182005,26.4279423 C14.1520317,27.4614905 15.1695571,28.4819359 16.4426992,29.4611263 C18.5888617,31.1121529 20.7025292,32.0706034 20.7914784,32.1103611 C20.8575914,32.1402354 20.9289454,32.1554347 21.0002995,32.1554347 C21.0628934,32.1554347 21.1257868,32.1436796 21.1854607,32.1203192 C21.2746345,32.0855032 23.3968376,31.2481974 25.5500381,29.6556466 C26.8275228,28.7106732 27.8488668,27.6946453 28.585019,26.6358649 C29.5261739,25.2826085 30.0034898,23.8568001 30.0034898,22.3981974 C30.0034898,19.5120641 27.6558439,17.1644182 24.7697107,17.1644182 L24.7697107,17.1644182 Z M21.0131777,31.089092 C19.767514,30.4839677 13.0151586,26.9912126 13.0151586,22.3981974 C13.0151586,20.0736123 14.9060038,18.182842 17.2305888,18.182842 C18.5628058,18.182842 19.7888528,18.792908 20.5940381,19.8572291 C20.69025,19.9844385 20.8405952,20.0590121 21.0002995,20.0590121 C21.1597043,20.0590121 21.3100495,19.9844385 21.4062614,19.8572291 C22.2114467,18.792908 23.4374937,18.182842 24.7697107,18.182842 C27.0942957,18.182842 28.985066,20.0736123 28.985066,22.3981974 C28.985066,27.4214334 22.2646815,30.5503052 21.0131777,31.089092 L21.0131777,31.089092 Z" id="Fill-8" fill="#FFFFFF"></path>
                    </g>
                </g>
            </g>
        </g>
    </g>
</svg>