<?xml version="1.0" encoding="UTF-8"?>
<svg width="42px" height="42px" viewBox="0 0 42 42" version="1.1" xmlns="http://www.w3.org/2000/svg" xmlns:xlink="http://www.w3.org/1999/xlink">
    <!-- Generator: Sketch 46.2 (44496) - http://www.bohemiancoding.com/sketch -->
    <title>Group 9</title>
    <desc>Created with Sketch.</desc>
    <defs>
        <polygon id="path-1" points="0.00406253594 0.0158438902 0.00406253594 11.984481 12.2656085 11.984481 12.2656085 0.0158438902 0.00406253594 0.0158438902"></polygon>
    </defs>
    <g id="Page-1" stroke="none" stroke-width="1" fill="none" fill-rule="evenodd">
        <g id="iPhone-7" transform="translate(-49.000000, -731.000000)">
            <g id="Group-2" transform="translate(38.000000, 719.000000)">
                <g id="Group">
                    <g id="Group-9" transform="translate(11.000000, 12.000000)">
                        <circle id="Oval" fill="#48466D" cx="21" cy="21" r="21"></circle>
                        <g id="Group-4" transform="translate(7.000000, 22.083458)">
                            <mask id="mask-2" fill="white">
                                <use xlink:href="#path-1"></use>
                            </mask>
                            <g id="Clip-2"></g>
                            <path d="M6.78226833,5.08189391 C3.75892908,5.08189391 1.29919899,7.35644008 1.29919899,10.1520742 C1.29919899,11.3338659 1.93898069,11.984481 3.10113681,11.984481 C3.7052359,11.984481 4.40216394,11.8231306 5.07607094,11.6667907 C5.68308152,11.5263624 6.31094645,11.3809236 6.78226833,11.3809236 C7.2004387,11.3809236 7.77196979,11.5142425 8.37688139,11.6552125 C9.07116879,11.8170368 9.78922201,11.984481 10.4205401,11.984481 L10.4210818,11.984481 C11.6105246,11.984481 12.2656085,11.333595 12.2656085,10.1520742 C12.2656085,7.35644008 9.80587841,5.08189391 6.78226833,5.08189391 L6.78226833,5.08189391 Z M10.4208109,11.0635041 L10.4205401,11.0635041 C9.89505107,11.0635041 9.22953998,10.9082475 8.58583116,10.75834 C7.92803888,10.6049115 7.30647088,10.4599467 6.78226833,10.4599467 C6.20565906,10.4599467 5.52565826,10.6173023 4.86813681,10.7696474 C4.24474067,10.9140705 3.59994851,11.0635041 3.10113681,11.0635041 C2.529538,11.0635041 2.21983735,10.9183362 2.21983735,10.1520742 C2.21983735,7.86425707 4.26647524,6.0028031 6.78226833,6.0028031 C9.29806142,6.0028031 11.3446993,7.86425707 11.3446993,10.1520742 C11.3446993,10.8334292 11.1116452,11.0635041 10.4208109,11.0635041 L10.4208109,11.0635041 Z" id="Fill-1" fill="#FFFFFF" mask="url(#mask-2)"></path>
                            <path d="M4.21169872,3.05272492 C4.21169872,1.34964215 3.28652386,0.0158438902 2.10588321,0.0158438902 C0.924904015,0.0158438902 0,1.34964215 0,3.05272492 C0,4.75546915 0.924904015,6.08926741 2.10588321,6.08926741 C3.2867947,6.08926741 4.21169872,4.75546915 4.21169872,3.05272492 L4.21169872,3.05272492 Z M0.920976897,3.05272492 C0.920976897,1.80566181 1.54538867,0.936549951 2.10588321,0.936549951 C2.66631004,0.936549951 3.29078953,1.80566181 3.29078953,3.05272492 C3.29078953,4.2995172 2.66631004,5.16862906 2.10588321,5.16862906 C1.54538867,5.16862906 0.920976897,4.2995172 0.920976897,3.05272492 L0.920976897,3.05272492 Z" id="Fill-3" fill="#FFFFFF" mask="url(#mask-2)"></path>
                        </g>
                        <path d="M13.9555355,26.2676668 C15.136447,26.2676668 16.061351,24.9335977 16.061351,23.2307858 C16.061351,21.5280415 15.136447,20.1939725 13.9555355,20.1939725 C12.7748271,20.1939725 11.8496523,21.5280415 11.8496523,23.2307858 C11.8496523,24.9335977 12.7745563,26.2676668 13.9555355,26.2676668 L13.9555355,26.2676668 Z M13.9555355,21.1148816 C14.5159623,21.1148816 15.1406449,21.9837227 15.1406449,23.2307858 C15.1406449,24.4778489 14.5159623,25.3466899 13.9555355,25.3466899 C13.3950409,25.3466899 12.7706292,24.4778489 12.7706292,23.2307858 C12.7706292,21.9837227 13.3950409,21.1148816 13.9555355,21.1148816 L13.9555355,21.1148816 Z" id="Fill-5" fill="#FFFFFF"></path>
                        <path d="M18.8051878,22.0993018 C17.6242086,22.0993018 16.6993046,23.4331001 16.6993046,25.1361828 C16.6993046,26.8389271 17.6242086,28.1727253 18.8051878,28.1727253 C19.9860993,28.1727253 20.9110033,26.8389271 20.9110033,25.1361828 C20.9110033,23.4331001 19.9860993,22.0993018 18.8051878,22.0993018 L18.8051878,22.0993018 Z M18.8051878,27.252087 C18.2446932,27.252087 17.6202814,26.3829751 17.6202814,25.1361828 C17.6202814,23.8891197 18.2446932,23.0200079 18.8051878,23.0200079 C19.3656146,23.0200079 19.9902972,23.8891197 19.9902972,25.1361828 C19.9902972,26.3829751 19.3656146,27.252087 18.8051878,27.252087 L18.8051878,27.252087 Z" id="Fill-6" fill="#FFFFFF"></path>
                        <path d="M26.4573127,15.0319112 C23.4339735,15.0319112 20.9742434,17.306525 20.9742434,20.1021591 C20.9742434,21.2836123 21.6142959,21.934566 22.7764521,21.934566 C23.3802803,21.934566 24.0772084,21.7729448 24.7511154,21.6168757 C25.3583968,21.4761765 25.9859909,21.3310086 26.4573127,21.3310086 C26.8754831,21.3310086 27.4470142,21.4639889 28.0519258,21.6052297 C28.7462132,21.7671218 29.4642664,21.934566 30.0958553,21.934566 L30.0961262,21.934566 C31.285569,21.9342951 31.9407206,21.2836123 31.9407206,20.1021591 C31.9407206,17.306525 29.4809228,15.0319112 26.4573127,15.0319112 L26.4573127,15.0319112 Z M30.0958553,21.0135891 L30.0958553,21.0135891 C29.5700955,21.0135891 28.9046521,20.8583325 28.2611464,20.7083572 C27.6030833,20.5549965 26.9815153,20.4100317 26.4573127,20.4100317 C25.8807712,20.4100317 25.2007704,20.5673872 24.5432489,20.7197323 C23.9198528,20.8641555 23.2749929,21.0135891 22.7764521,21.0135891 C22.2046501,21.0135891 21.8948818,20.8684211 21.8948818,20.1021591 C21.8948818,17.8140712 23.9417905,15.9528881 26.4573127,15.9528881 C28.9731058,15.9528881 31.0200146,17.8140712 31.0200146,20.1021591 C31.0200146,20.7835141 30.7867573,21.0135891 30.0958553,21.0135891 L30.0958553,21.0135891 Z" id="Fill-7" fill="#FFFFFF"></path>
                        <path d="M21.7809276,16.0393524 C22.9618391,16.0393524 23.8867431,14.7055541 23.8867431,13.0028099 C23.8867431,11.2997271 22.9618391,9.96592885 21.7809276,9.96592885 C20.6002193,9.96592885 19.6750444,11.2997271 19.6750444,13.0028099 C19.6750444,14.7055541 20.6002193,16.0393524 21.7809276,16.0393524 L21.7809276,16.0393524 Z M21.7809276,10.8866349 C22.3413545,10.8866349 22.9658339,11.7557468 22.9658339,13.002539 C22.9658339,14.2496022 22.3413545,15.1184432 21.7809276,15.1184432 C21.2204331,15.1184432 20.5960213,14.2496022 20.5960213,13.002539 C20.5960213,11.7557468 21.2204331,10.8866349 21.7809276,10.8866349 L21.7809276,10.8866349 Z" id="Fill-8" fill="#FFFFFF"></path>
                        <path d="M26.6305799,14.1342938 C27.8114914,14.1342938 28.7363954,12.800157 28.7363954,11.0974128 C28.7363954,9.39466859 27.8114914,8.06053179 26.6305799,8.06053179 C25.4498715,8.06053179 24.5246967,9.39466859 24.5246967,11.0974128 C24.5246967,12.800157 25.4498715,14.1342938 26.6305799,14.1342938 L26.6305799,14.1342938 Z M26.6305799,8.98150868 C27.1912776,8.98150868 27.8157571,9.8503497 27.8157571,11.0974128 C27.8157571,12.3444759 27.1912776,13.213317 26.6305799,13.213317 C26.0700854,13.213317 25.4456736,12.3442051 25.4456736,11.0974128 C25.4456736,9.8503497 26.0700854,8.98150868 26.6305799,8.98150868 L26.6305799,8.98150868 Z" id="Fill-9" fill="#FFFFFF"></path>
                        <path d="M31.4802322,9.96565801 C30.2995238,9.96565801 29.374349,11.2997271 29.374349,13.002539 C29.374349,14.7055541 30.2995238,16.0393524 31.4802322,16.0393524 C32.6611437,16.0393524 33.5860477,14.7055541 33.5860477,13.002539 C33.5860477,11.2997271 32.6611437,9.96565801 31.4802322,9.96565801 L31.4802322,9.96565801 Z M31.4802322,15.118714 C30.9197376,15.118714 30.2953259,14.2496022 30.2953259,13.0028099 C30.2953259,11.7557468 30.9197376,10.8866349 31.4802322,10.8866349 C32.0409298,10.8866349 32.6654093,11.7557468 32.6654093,13.0028099 C32.6654093,14.2496022 32.0409298,15.118714 31.4802322,15.118714 L31.4802322,15.118714 Z" id="Fill-10" fill="#FFFFFF"></path>
                    </g>
                </g>
            </g>
        </g>
    </g>
</svg>