<?xml version="1.0" encoding="UTF-8"?>
<svg width="185px" height="72px" viewBox="0 0 185 72" version="1.1" xmlns="http://www.w3.org/2000/svg" xmlns:xlink="http://www.w3.org/1999/xlink">
    <!-- Generator: Sketch 40.3 (33839) - http://www.bohemiancoding.com/sketch -->
    <title>Group</title>
    <desc>Created with Sketch.</desc>
    <defs>
        <path d="M38.7070448,0.624148103 C46.0514584,0.624148103 50.8154024,5.43418777 50.8154024,12.8496656 L50.8154024,39.7057204 C50.8154024,47.1211983 46.0514584,51.9312379 38.7070448,51.9312379 L12.1083576,51.9312379 C4.76394397,51.9312379 0,47.1211983 0,39.7057204 L0,12.8496656 C0,5.43418777 4.76394397,0.624148103 12.1083576,0.624148103 L38.7070448,0.624148103 Z" id="path-1"></path>
        <filter x="-50%" y="-50%" width="200%" height="200%" filterUnits="objectBoundingBox" id="filter-2">
            <feOffset dx="0" dy="1" in="SourceAlpha" result="shadowOffsetOuter1"></feOffset>
            <feGaussianBlur stdDeviation="5" in="shadowOffsetOuter1" result="shadowBlurOuter1"></feGaussianBlur>
            <feColorMatrix values="0 0 0 0 0   0 0 0 0 0   0 0 0 0 0  0 0 0 0.210994112 0" type="matrix" in="shadowBlurOuter1"></feColorMatrix>
        </filter>
        <path d="M17.6217508,0.424870701 C12.5477312,0.424870701 10.0111426,0.424870701 7.27995026,1.29715279 C4.29771061,2.39271528 1.94898628,4.76459106 0.863501593,7.77568671 C0,10.5337313 0,13.095289 0,18.2184046 L0,33.667707 C0,38.7912479 0,41.3523804 0.863501593,44.1099996 C1.94898628,47.1215206 4.29771061,49.4929711 7.27995026,50.5885336 C10.0111426,51.4608156 12.5477312,51.4608156 17.6217508,51.4608156 L32.9238415,51.4608156 C37.9987035,51.4608156 40.5348709,51.4608156 43.2664845,50.5885336 C46.2483029,49.4929711 48.5974484,47.1215206 49.6829331,44.1099996 C50.5464347,41.3523804 50.5464347,38.7912479 50.5464347,33.667707 L50.5464347,18.2184046 C50.5464347,13.095289 50.5464347,10.5337313 49.6829331,7.77568671 C48.5974484,4.76459106 46.2483029,2.39271528 43.2664845,1.29715279 C40.5348709,0.424870701 37.9987035,0.424870701 32.9238415,0.424870701 L17.6217508,0.424870701 L17.6217508,0.424870701 Z M0,0.424870701 L50.5464347,0.424870701 L50.5464347,51.4608156 L0,51.4608156 L0,0.424870701 L0,0.424870701 Z" id="path-3"></path>
    </defs>
    <g id="Page-1" stroke="none" stroke-width="1" fill="none" fill-rule="evenodd">
        <g id="Desktop" transform="translate(-75.000000, -23.000000)">
            <g id="Group" transform="translate(85.000000, 32.000000)">
                <path d="M134.220067,29.5862069 L134.220067,36.0413793 C134.220067,42.137931 136.883946,47.816092 144.224415,47.816092 C148.901003,47.816092 151.091304,45.3057471 152.156856,44.3494253 L152.867224,46.3218391 C153.044816,46.8 153.4,47.2183908 153.991973,47.2183908 L156.182274,47.2183908 C156.774247,47.2183908 157.307023,46.6804598 157.307023,46.0827586 L157.307023,45.0393983 C157.380457,45.2580177 157.529332,45.4540573 157.708249,45.6045977 C158.951393,46.5609195 161.67447,47.816092 165.581494,47.816092 C171.560423,47.816092 174.993868,44.4689655 174.993868,40.5241379 C174.993868,35.862069 171.560423,33.8896552 167.002229,32.0965517 C164.811928,31.2 163.746377,30.8413793 163.746377,29.7655172 C163.746377,28.9885057 164.33835,28.3908046 165.759086,28.3908046 C168.008584,28.3908046 170.672464,29.645977 170.672464,29.645977 C171.146042,29.8252874 171.797213,29.7655172 172.093199,29.2275862 L173.573132,26.1793103 C173.869119,25.5816092 173.573132,24.9241379 173.040356,24.5655172 C171.797213,23.7287356 169.251728,22.7126437 165.759086,22.7126437 C160.780566,22.7126437 158.095938,25.0287311 157.307023,27.8852699 L157.307023,24.445977 C157.307023,23.7885057 156.774247,23.3103448 156.182274,23.3103448 L151.683277,23.3103448 C150.73612,23.3103448 150.380936,23.5494253 150.380936,24.445977 L150.380936,36.8781609 C150.025752,39.0298851 148.131438,41.3609195 145.64515,41.3609195 C142.922073,41.3609195 141.323746,39.3885057 141.323746,36.2206897 L141.323746,24.445977 C141.323746,23.7885057 140.79097,23.3103448 140.198996,23.3103448 L135.344816,23.3103448 C135.249507,23.3103448 135.155733,23.3227395 135.06547,23.3462815 C134.971073,23.3227395 134.870837,23.3103448 134.765998,23.3103448 L128.846265,23.3103448 L128.846265,16.8551724 C128.846265,13.3885057 130.267001,11.416092 132.812486,11.416092 C134.114827,11.416092 135.535563,12.1333333 136.305128,12.6114943 C136.837904,12.9103448 137.489075,12.7908046 137.725864,12.3126437 L139.738573,8.48735632 C139.975362,8.06896552 139.856968,7.41149425 139.501784,7.11264368 C138.436232,6.15632184 135.653958,4.7816092 132.516499,4.7816092 C126.241583,4.7816092 121.4466,8.96551724 121.4466,16.8551724 L121.4466,23.3103448 L119.433891,23.3103448 C119.021612,23.3103448 118.680523,23.5020198 118.485744,23.8095223 C118.278598,23.5020198 117.92753,23.3103448 117.552731,23.3103448 L113.053735,23.3103448 C112.106577,23.3103448 111.751393,23.5494253 111.751393,24.445977 L111.751393,36.8781609 C111.39621,39.0298851 109.501895,41.3609195 107.015608,41.3609195 C104.292531,41.3609195 102.694203,39.3885057 102.694203,36.2206897 L102.694203,24.445977 C102.694203,23.7885057 102.161427,23.3103448 101.569454,23.3103448 L96.7152731,23.3103448 C96.1232998,23.3103448 95.5905239,23.7885057 95.5905239,24.445977 L95.5905239,36.0413793 C95.5905239,42.137931 98.2544035,47.816092 105.594872,47.816092 C110.27146,47.816092 112.461761,45.3057471 113.527313,44.3494253 L114.237681,46.3218391 C114.415273,46.8 114.770457,47.2183908 115.36243,47.2183908 L117.552731,47.2183908 C118.144705,47.2183908 118.67748,46.6804598 118.67748,46.0827586 L118.67748,29.2918809 C118.872981,29.4726364 119.134689,29.5862069 119.433891,29.5862069 L121.4466,29.5862069 L121.4466,46.0827586 C121.4466,46.6804598 121.979376,47.2183908 122.571349,47.2183908 L127.721516,47.2183908 C128.313489,47.2183908 128.846265,46.6804598 128.846265,46.0827586 L128.846265,29.5862069 L134.220067,29.5862069 Z M157.307023,44.4586665 L157.307023,31.783585 C157.990034,34.3507108 160.085367,36.2150036 163.746377,37.6551724 C166.883835,38.9103448 167.712597,39.5678161 167.712597,40.6436782 C167.712597,41.6597701 166.883835,42.137931 165.699888,42.137931 C162.976811,42.137931 160.312932,40.7034483 160.312932,40.7034483 C159.780156,40.4045977 159.188183,40.5241379 158.951393,41.1218391 L157.353066,44.3494253 C157.33502,44.3858656 157.319725,44.4223058 157.307023,44.4586667 Z M65.7682274,46.0827586 C65.7682274,46.6804598 66.241806,47.2183908 66.8929766,47.2183908 L72.3391304,47.2183908 C72.9311037,47.2183908 73.4638796,46.6804598 73.4638796,46.0827586 L73.4638796,30.8413793 L80.0347826,30.8413793 L87.9080268,46.6804598 C88.0264214,46.9195402 88.322408,47.2183908 88.8551839,47.2183908 L95.070903,47.2183908 C96.0772575,47.2183908 96.4916388,46.262069 96.0772575,45.4850575 L87.9672241,30.3034483 C93.1173913,28.2114943 96.7284281,23.7287356 96.7284281,18.2298851 C96.7284281,11.1172414 90.9270903,5.37931034 83.8234114,5.37931034 L66.8929766,5.37931034 C66.241806,5.37931034 65.7682274,5.91724138 65.7682274,6.51494253 L65.7682274,46.0827586 Z M73.5230769,24.445977 L73.5230769,12.5517241 L83.1722408,12.5517241 C86.309699,12.5517241 89.0327759,15.1816092 89.0327759,18.3494253 C89.0327759,21.6965517 86.309699,24.445977 83.1722408,24.445977 L73.5230769,24.445977 Z" id="Rufus-Copy" fill="#48466D"></path>
                <g id="Group-Copy">
                    <g id="App-Icon-Shape-Copy">
                        <use fill="black" fill-opacity="1" filter="url(#filter-2)" xlink:href="#path-1"></use>
                        <use fill="#FFFFFF" fill-rule="evenodd" xlink:href="#path-1"></use>
                    </g>
                    <g id="Page-1">
                        <g id="Group-3" transform="translate(0.000000, 0.362660)">
                            <mask id="mask-4" fill="white">
                                <use xlink:href="#path-3"></use>
                            </mask>
                            <g id="Clip-2"></g>
                            <path d="M17.6217508,0.424870701 C12.5477312,0.424870701 10.0111426,0.424870701 7.27995026,1.29715279 L7.27995026,1.29715279 C4.29771061,2.39271528 1.94898628,4.76459106 0.863501593,7.77568671 L0.863501593,7.77568671 C0,10.5337313 0,13.095289 0,18.2184046 L0,18.2184046 L0,33.667707 C0,38.7912479 0,41.3523804 0.863501593,44.1099996 L0.863501593,44.1099996 C1.94898628,47.1215206 4.29771061,49.4929711 7.27995026,50.5885336 L7.27995026,50.5885336 C10.0111426,51.4608156 12.5477312,51.4608156 17.6217508,51.4608156 L17.6217508,51.4608156 L32.9238415,51.4608156 C37.9987035,51.4608156 40.5348709,51.4608156 43.2664845,50.5885336 L43.2664845,50.5885336 C46.2483029,49.4929711 48.5974484,47.1215206 49.6829331,44.1099996 L49.6829331,44.1099996 C50.5464347,41.3523804 50.5464347,38.7912479 50.5464347,33.667707 L50.5464347,33.667707 L50.5464347,18.2184046 C50.5464347,13.095289 50.5464347,10.5337313 49.6829331,7.77568671 L49.6829331,7.77568671 C48.5974484,4.76459106 46.2483029,2.39271528 43.2664845,1.29715279 L43.2664845,1.29715279 C40.5348709,0.424870701 37.9987035,0.424870701 32.9238415,0.424870701 L32.9238415,0.424870701 L17.6217508,0.424870701 Z" id="Fill-1" mask="url(#mask-4)"></path>
                        </g>
                        <g id="Group-19" transform="translate(8.424406, 12.776280)" fill="#F85F73">
                            <path d="M7.11420008,13.2249236 C6.65212142,13.2627749 6.30840566,13.6719097 6.34589427,14.1380341 C6.34757915,14.1575977 6.50469432,16.1462818 6.43013833,18.3667522 C6.38717386,19.6519967 6.19004276,22.7477263 5.29410721,23.7288841 C5.11508858,23.9249456 4.97734955,23.9517392 4.86614739,23.9517392 C3.87964948,23.9517392 3.11050123,22.9357071 2.58018488,20.9321377 C2.13663992,19.2556208 1.88980483,16.9420106 1.84726158,14.0568026 C1.81103663,11.6087988 1.97362767,8.1996261 3.79751152,6.85866782 C4.91121796,6.03997302 6.63737871,6.02253589 8.92839586,6.8076323 C9.3673074,6.95818708 9.84370755,6.72044662 9.99239831,6.27728819 C10.1415103,5.83455506 9.90646938,5.35311999 9.46755783,5.2029905 C6.63021796,4.23118915 4.39016847,4.32688075 2.80974994,5.48878941 C1.70741644,6.29940358 0.943322838,7.62462591 0.539372581,9.42830623 C0.258418648,10.6825041 0.140476966,12.1616836 0.169119946,14.0823203 C0.213769297,17.1066002 0.479559299,19.5588569 0.958907989,21.3697672 C1.29251446,22.6299193 1.72173793,23.5855594 2.27143041,24.2907001 C2.96307413,25.1774423 3.86027334,25.6461185 4.86614739,25.6461185 C5.49418684,25.6461185 6.06915254,25.3803085 6.52828265,24.8771833 C7.48024051,23.8347828 7.9970778,21.7236135 8.10743752,18.4241672 C8.18536327,16.1067293 8.02572078,14.0852974 8.01856004,14.0006635 C7.98107143,13.5345391 7.57627873,13.1874976 7.11420008,13.2249236" id="Fill-4"></path>
                            <path d="M32.8440202,9.28468377 C32.3364498,7.85356274 31.5525588,6.66656162 30.5129872,5.75642818 C29.1494971,4.56304762 27.7072388,4.17220059 27.0661415,4.05014064 C25.5691246,2.48930433 23.6900609,1.38651181 21.4778119,0.769832617 C19.6568766,0.262454493 17.6101672,0.0838301742 15.3949697,0.239488509 C11.6604307,0.501896139 8.74937724,1.61319458 8.62722336,1.66040244 C8.19463012,1.82754376 7.97812289,2.31663416 8.14366246,2.75383844 C8.30878082,3.19061743 8.79360537,3.40964487 9.22661983,3.24292884 C9.25484159,3.23272174 12.0601687,2.16522878 15.5533486,1.92706303 C17.5718362,1.78969242 19.4218357,1.95173019 21.0528007,2.40934869 C23.0506485,2.96988881 24.7271053,3.98209328 26.0366791,5.41746727 L26.2565561,5.6586101 L26.5800533,5.68753023 C26.5943748,5.68880612 28.0568516,5.84956801 29.4136022,7.03699443 C30.2324544,7.75361819 30.8545968,8.70202826 31.2640229,9.8558563 C31.7960242,11.35545 31.9699881,13.2080393 31.7812814,15.361313 C31.5538225,17.9522162 31.0795284,21.3979644 30.107352,23.102976 C29.6339004,23.9327285 29.2821815,23.9497403 29.1254875,23.9514415 C29.0943172,23.9471886 28.7628168,23.8872218 28.3685547,23.3930279 C27.6208886,22.4548249 26.5113944,19.7941732 27.4852557,12.513531 C27.5475963,12.0495331 27.2253628,11.6229612 26.7662327,11.5604427 C26.3066813,11.4974988 25.8846186,11.8228503 25.822278,12.2868482 C25.3677813,15.6828368 25.3054407,18.5016986 25.6365199,20.6651794 C25.9027311,22.4054906 26.4220957,23.7285864 27.1807134,24.5991673 C28.0239965,25.5662904 28.8685431,25.6462461 29.1204329,25.6462461 L29.1284361,25.6462461 C30.1178825,25.639016 30.9139889,25.0835795 31.5614045,23.9484645 C32.464922,22.3646622 33.1009646,19.5258114 33.4526835,15.5110172 C33.6628725,13.1110719 33.4581594,11.0164891 32.8440202,9.28468377" id="Fill-6"></path>
                            <path d="M13.2554234,12.400062 C13.2554234,11.7234161 12.7120492,11.1747842 12.042309,11.1747842 C11.3721475,11.1747842 10.8287733,11.7234161 10.8287733,12.400062 C10.8287733,13.0767079 11.3721475,13.6249145 12.042309,13.6249145 C12.7120492,13.6249145 13.2554234,13.0767079 13.2554234,12.400062" id="Fill-8"></path>
                            <path d="M22.9996387,12.400062 C22.9996387,11.7234161 22.4562646,11.1747842 21.7861031,11.1747842 C21.1159416,11.1747842 20.5729886,11.7234161 20.5729886,12.400062 C20.5729886,13.0767079 21.1159416,13.6249145 21.7861031,13.6249145 C22.4562646,13.6249145 22.9996387,13.0767079 22.9996387,12.400062" id="Fill-10"></path>
                            <path d="M14.1025817,18.511608 C14.1025817,17.5372549 15.5861195,16.8584825 16.9180181,16.8584825 C18.2499166,16.8584825 19.7338757,17.5372549 19.7338757,18.511608 C19.7338757,19.4855359 18.2499166,20.1643083 16.9180181,20.1643083 C15.5861195,20.1643083 14.1025817,19.4855359 14.1025817,18.511608 M23.5661379,23.07631 C22.0897608,24.6847794 20.8294697,25.3920467 19.9208975,25.1219837 C19.2183021,24.9131634 18.6913555,24.1174346 18.3324758,23.3008662 C18.0186667,22.5855184 18.3619612,21.74726 19.0822479,21.458484 C20.4815417,20.8970933 21.4120173,19.8002549 21.4120173,18.511608 C21.4120173,16.6343515 19.4381791,15.1641032 16.9180181,15.1641032 C14.3982783,15.1641032 12.42444,16.6343515 12.42444,18.511608 C12.42444,19.8070596 13.3646037,20.9085763 14.7752705,21.4665646 C15.4993481,21.7532141 15.8464337,22.5953002 15.5300972,23.3119239 C15.1716387,24.1246646 14.646377,24.914014 13.9463089,25.1219837 C13.038158,25.3920467 11.7778669,24.6847794 10.3014898,23.07631 C9.98388966,22.7305443 9.43082742,22.6982218 9.09258753,23.0235733 C8.76150838,23.3425453 8.74381713,23.8720388 9.05552015,24.2118503 C10.676797,25.9819322 12.1843445,26.8737779 13.5507831,26.8737779 C13.8485858,26.8737779 14.1404915,26.8312483 14.4248152,26.7461891 C15.4504866,26.439976 16.2933484,25.6140512 16.9340244,24.2896794 C17.5747005,25.6140512 18.4171411,26.439976 19.4432337,26.7461891 C19.7275574,26.8312483 20.0186206,26.8737779 20.3168446,26.8737779 C21.6832832,26.8737779 23.1912518,25.9819322 24.8121075,24.2118503 C25.1238105,23.8720388 25.1065405,23.3425453 24.7754613,23.0235733 C24.4368002,22.6982218 23.8841592,22.7305443 23.5661379,23.07631" id="Fill-12"></path>
                        </g>
                    </g>
                </g>
            </g>
        </g>
    </g>
</svg>